<svg viewBox="0 0 60 61" stroke="currentColor" fill="none" xmlns="http://www.w3.org/2000/svg" role="presentation">
  <path stroke-width="var(--icon-stroke-width)" stroke-linecap="round" stroke-linejoin="round" d="M23.75 25.5a1.25 1.25 0 1 1-2.5 0m2.5 0a1.25 1.25 0 1 0-2.5 0m2.5 0h-2.5m17.5 0a1.25 1.25 0 1 1-2.5 0m2.5 0a1.25 1.25 0 1 0-2.5 0m2.5 0h-2.5m3.75 15c-2.28-3.036-5.91-5-10-5s-7.72 1.964-10.001 5M30 55.5v0c13.807 0 25-11.193 25-25v0c0-13.807-11.193-25-25-25v0c-13.807 0-25 11.193-25 25v0c0 13.807 11.193 25 25 25Z"></path>
</svg>
