<svg xmlns="http://www.w3.org/2000/svg" viewBox="0 0 20 20" fill="none">
  <path stroke="currentColor" stroke-linecap="round" stroke-linejoin="round" stroke-width="var(--icon-stroke-width)" d="M5.83333 6.66675V5.83341C5.83333 4.74781 5.83333 4.205 5.97218 3.76463C6.26651 2.83114 6.99772 2.09993 7.93122 1.8056C8.37159 1.66675 8.91439 1.66675 10 1.66675V1.66675C11.0856 1.66675 11.6284 1.66675 12.0688 1.8056C13.0023 2.09993 13.7335 2.83114 14.0278 3.76463C14.1667 4.205 14.1667 4.74781 14.1667 5.83341V6.66675M10 11.6667V13.3334M8.33333 18.3334H11.6667C13.3741 18.3334 14.2278 18.3334 14.909 18.077C15.9871 17.6713 16.8379 16.8205 17.2436 15.7424C17.5 15.0612 17.5 14.2075 17.5 12.5001V12.5001C17.5 10.7926 17.5 9.93892 17.2436 9.25775C16.8379 8.17969 15.9871 7.32888 14.909 6.92312C14.2278 6.66675 13.3741 6.66675 11.6667 6.66675H8.33333C6.62589 6.66675 5.77218 6.66675 5.091 6.92312C4.01294 7.32888 3.16213 8.17969 2.75638 9.25775C2.5 9.93892 2.5 10.7926 2.5 12.5001V12.5001C2.5 14.2075 2.5 15.0612 2.75638 15.7424C3.16213 16.8205 4.01294 17.6713 5.091 18.077C5.77218 18.3334 6.62589 18.3334 8.33333 18.3334Z"></path>
</svg>
